<svg xmlns="http://www.w3.org/2000/svg" width="42.54" height="40.98" viewBox="0 0 42.54 40.98"><g transform="translate(1 1)"><path d="M15.035,1H0A1,1,0,0,1-1,0,1,1,0,0,1,0-1H15.035a1,1,0,0,1,1,1A1,1,0,0,1,15.035,1Z" transform="translate(10.246 11.972)" fill="#3372df"/><path d="M6.682,1H0A1,1,0,0,1-1,0,1,1,0,0,1,0-1H6.682a1,1,0,0,1,1,1A1,1,0,0,1,6.682,1Z" transform="translate(10.246 18.655)" fill="#3372df"/><path d="M15.474,3H31.066A13.51,13.51,0,0,1,44.54,16.474v6.237A13.51,13.51,0,0,1,31.066,36.184H23.738A30.747,30.747,0,0,0,3.654,43.737,1,1,0,0,1,2,42.98V16.474A13.51,13.51,0,0,1,15.474,3ZM31.066,34.184A11.487,11.487,0,0,0,42.54,22.711V16.474A11.487,11.487,0,0,0,31.066,5H15.474A11.487,11.487,0,0,0,4,16.474V40.883a32.676,32.676,0,0,1,19.738-6.7Z" transform="translate(-3 -4)" fill="#3372df"/></g></svg>