<svg xmlns="http://www.w3.org/2000/svg" width="22" height="22" viewBox="0 0 22 22"><path d="M201.788,219.978a1.07,1.07,0,0,1-.645-.145.67.67,0,0,1-.185-.55,2.856,2.856,0,0,1,.06-.5,5.5,5.5,0,0,1,.13-.56l.59-2.03a3.073,3.073,0,0,0,.12-.615c0-.225.03-.38.03-.47a1.315,1.315,0,0,0-.465-1.045,1.955,1.955,0,0,0-1.32-.4,3.426,3.426,0,0,0-1,.165q-.53.165-1.115.4l-.17.66c.115-.04.255-.085.415-.135a1.7,1.7,0,0,1,.47-.07.96.96,0,0,1,.635.155.725.725,0,0,1,.165.545,2.372,2.372,0,0,1-.055.5q-.053.263-.135.555l-.6,2.04a5.84,5.84,0,0,0-.115.575,3.573,3.573,0,0,0-.035.5,1.3,1.3,0,0,0,.5,1.035,2,2,0,0,0,1.34.41,3.084,3.084,0,0,0,1-.145q.425-.145,1.135-.415l.16-.63a2.762,2.762,0,0,1-.4.13A1.9,1.9,0,0,1,201.788,219.978Z" transform="translate(-189.318 -204.478)"/><path d="M250.975,128.365a1.521,1.521,0,0,0-2,0,1.2,1.2,0,0,0,0,1.81,1.5,1.5,0,0,0,2,0,1.2,1.2,0,0,0,0-1.81Z" transform="translate(-237.88 -122.49)"/><path d="M11,0A11,11,0,1,0,22,11,11,11,0,0,0,11,0Zm0,21A10,10,0,1,1,21,11,10,10,0,0,1,11,21Z"/></svg>