<svg xmlns="http://www.w3.org/2000/svg" width="28" height="28" viewBox="0 0 28 28"><circle cx="14" cy="14" r="14" fill="#fff"/><path d="M14,2A12,12,0,0,0,5.515,22.485,12,12,0,1,0,22.485,5.515,11.921,11.921,0,0,0,14,2m0-2A14,14,0,1,1,0,14,14,14,0,0,1,14,0Z"/><path d="M12.144,0h.284a1.012,1.012,0,0,1,.588.377,3.555,3.555,0,0,1,.186.37v.335a1.543,1.543,0,0,1-.481.713Q10.1,4.409,7.485,7.03a1.606,1.606,0,0,1-.73.5H6.446a1.6,1.6,0,0,1-.73-.5Q3.1,4.409.481,1.8A1.547,1.547,0,0,1,0,1.083V.748A3.453,3.453,0,0,1,.186.377.994.994,0,0,1,.773,0h.309a1.645,1.645,0,0,1,.738.511q2.333,2.34,4.672,4.675c.035.035.071.068.119.113.044-.051.075-.092.111-.129Q9.083,2.81,11.441.449A1.406,1.406,0,0,1,12.144,0Z" transform="translate(17.77 7.577) rotate(90)"/></svg>