<svg xmlns="http://www.w3.org/2000/svg" width="20" height="20" viewBox="0 0 20 20">
  <g id="log-out" transform="translate(-126.235 -159.242)">
    <path id="Path_34387" data-name="Path 34387" d="M128.235,173.242v2a4,4,0,0,0,4,4h10a4,4,0,0,0,4-4v-12a4,4,0,0,0-4-4h-10a4,4,0,0,0-4,4v2a1,1,0,0,0,2,0v-2a2,2,0,0,1,2-2h10a2,2,0,0,1,2,2v12a2,2,0,0,1-2,2h-10a2,2,0,0,1-2-2v-2a1,1,0,0,0-2,0Zm7.586-5-1.293-1.292a1,1,0,1,1,1.414-1.415l3,3a1,1,0,0,1,0,1.415l-3,3a1,1,0,0,1-1.414-1.415l1.293-1.293h-8.586a1,1,0,1,1,0-2Z" transform="translate(0 0)" fill="#9698ab" fill-rule="evenodd"/>
  </g>
</svg>
