<svg xmlns="http://www.w3.org/2000/svg" width="50.124" height="33.867" viewBox="0 0 50.124 33.867"><path d="M26.561,33.867H68.535A4.075,4.075,0,0,0,72.61,29.8V4.065A4.073,4.073,0,0,0,68.566,0c-.007,0-.014,0-.02,0h-42c-.007,0-.014,0-.02,0a4.073,4.073,0,0,0-4.044,4.062V29.8A4.074,4.074,0,0,0,26.561,33.867Zm.425-2.709L40.871,16.115l5.769,5.21a1.353,1.353,0,0,0,1.815,0l5.769-5.21L68.109,31.158ZM68.969,2.8A1.346,1.346,0,0,1,69.9,4.065V29.1L56.234,14.3Zm-3.944-.087L47.547,18.495,30.07,2.709ZM25.195,4.065A1.346,1.346,0,0,1,26.125,2.8L38.861,14.3,25.195,29.1Z" transform="translate(-22.486 0)" fill="#f2a544"/></svg>