<svg xmlns="http://www.w3.org/2000/svg" width="43.435" height="43.435" viewBox="0 0 43.435 43.435"><path d="M34.625,51.754a4.273,4.273,0,0,0-3.1-1.418,4.419,4.419,0,0,0-3.134,1.409l-2.9,2.882c-.238-.128-.476-.247-.706-.366-.33-.165-.641-.32-.907-.485a31.455,31.455,0,0,1-7.541-6.862,18.536,18.536,0,0,1-2.474-3.9c.751-.686,1.448-1.4,2.126-2.086.257-.256.513-.522.77-.778a4.194,4.194,0,0,0,0-6.332l-2.5-2.5c-.284-.284-.577-.576-.852-.869-.55-.567-1.127-1.153-1.723-1.7a4.34,4.34,0,0,0-3.07-1.345A4.492,4.492,0,0,0,5.5,28.751l-.018.018L2.371,31.908A6.69,6.69,0,0,0,.382,36.162a16.019,16.019,0,0,0,1.173,6.789,39.385,39.385,0,0,0,7.01,11.675A43.112,43.112,0,0,0,22.924,65.854a22.4,22.4,0,0,0,8.064,2.379c.192.009.394.018.577.018a6.909,6.909,0,0,0,5.287-2.269c.009-.018.027-.027.037-.046a20.814,20.814,0,0,1,1.6-1.656c.394-.375.8-.769,1.191-1.18a4.561,4.561,0,0,0,1.384-3.166A4.395,4.395,0,0,0,39.656,56.8Zm3.28,9.635c-.009,0-.009.009,0,0-.357.384-.724.732-1.118,1.116a24.076,24.076,0,0,0-1.768,1.83,4.42,4.42,0,0,1-3.445,1.455c-.137,0-.284,0-.422-.009A19.9,19.9,0,0,1,24,63.64,40.7,40.7,0,0,1,10.48,53.062a37.136,37.136,0,0,1-6.6-10.971,13.048,13.048,0,0,1-1.026-5.728,4.2,4.2,0,0,1,1.265-2.718l3.125-3.12a2.084,2.084,0,0,1,1.393-.65,1.961,1.961,0,0,1,1.338.64l.027.027c.559.522,1.09,1.061,1.649,1.638.284.293.577.586.871.888l2.5,2.5a1.745,1.745,0,0,1,0,2.836c-.266.265-.522.531-.788.787-.77.787-1.5,1.519-2.3,2.233-.018.018-.037.027-.046.046a1.864,1.864,0,0,0-.476,2.077l.027.082a20.049,20.049,0,0,0,2.96,4.822l.009.009a33.615,33.615,0,0,0,8.137,7.393,12.518,12.518,0,0,0,1.127.613c.33.165.641.32.907.485.037.018.073.046.11.064a1.989,1.989,0,0,0,.907.229,1.96,1.96,0,0,0,1.393-.631l3.134-3.129A2.074,2.074,0,0,1,31.51,52.8a1.867,1.867,0,0,1,1.319.668l.018.018L37.9,58.525A1.808,1.808,0,0,1,37.905,61.389Z" transform="translate(-0.344 -24.816)" fill="#e83e3e"/><path d="M245.994,88.456a12.164,12.164,0,0,1,9.9,9.9,1.268,1.268,0,0,0,1.257,1.059,1.689,1.689,0,0,0,.217-.019,1.277,1.277,0,0,0,1.049-1.474,14.708,14.708,0,0,0-11.984-11.984,1.283,1.283,0,0,0-1.474,1.04A1.262,1.262,0,0,0,245.994,88.456Z" transform="translate(-222.774 -78.153)" fill="#e83e3e"/><path d="M269.992,19.754A24.218,24.218,0,0,0,250.257.02a1.274,1.274,0,1,0-.416,2.514A21.632,21.632,0,0,1,267.478,20.17a1.268,1.268,0,0,0,1.257,1.059,1.689,1.689,0,0,0,.217-.019A1.252,1.252,0,0,0,269.992,19.754Z" transform="translate(-226.576 0)" fill="#e83e3e"/></svg>