<svg xmlns="http://www.w3.org/2000/svg" width="46.545" height="46.777" viewBox="0 0 46.545 46.777"><path d="M39.761,5.216A23.179,23.179,0,0,0,3.291,33.181L0,45.195,12.289,41.97A23.168,23.168,0,0,0,23.36,44.794h.009A23.183,23.183,0,0,0,39.758,5.219l0,0ZM23.37,40.883A19.235,19.235,0,0,1,13.559,38.2l-.705-.421-7.292,1.91,1.947-7.107-.456-.73A19.272,19.272,0,0,1,37,7.972,19.284,19.284,0,0,1,23.368,40.881l0,0ZM33.931,26.449c-.575-.293-3.427-1.69-3.956-1.883s-.915-.293-1.307.293-1.5,1.883-1.837,2.274-.675.439-1.251.146A15.932,15.932,0,0,1,20.922,24.4a17.673,17.673,0,0,1-3.224-4.01c-.339-.576-.038-.9.257-1.178.266-.258.576-.675.868-1.015a3.758,3.758,0,0,0,.576-.968,1.066,1.066,0,0,0-.046-1.015c-.146-.292-1.307-3.143-1.781-4.3-.465-1.135-.95-.977-1.307-1-.339-.017-.723-.017-1.105-.017a2.135,2.135,0,0,0-1.544.722,6.5,6.5,0,0,0-2.029,4.833c0,2.851,2.074,5.6,2.365,5.993s4.085,6.239,9.893,8.745c1.38.594,2.458.95,3.3,1.226a8,8,0,0,0,3.646.228c1.114-.164,3.427-1.4,3.912-2.751a4.818,4.818,0,0,0,.339-2.751c-.137-.258-.521-.4-1.106-.7l0,0Z" transform="translate(-0.001 1.582)" fill="#4dcf7c" fill-rule="evenodd"/></svg>